# xmcd
#
# Track frame offsets:
#	154
#	11410
#	23781
#	37204
#	49805
#	66314
#	82370
#	95876
#	109340
#	122902
#	139348
#	152213
#
# Disc length: 2247 seconds
#
# Revision: 1
# Processed by: cddbd v1.5.1PL2 Copyright (c) Steve Scherf et al.
# Submitted via: EasyCDDAExtractor 8.2.3.1
#
DISCID=b508c50c
DTITLE=Jacó e Jacózinho - Amigo da onça
DYEAR=1972
DGENRE=Sertanejo
TTITLE0=Amigo da onça
TTITLE1=O fim do velho marrudo
TTITLE2=O cheiro da onça
TTITLE3=Eu acho é bom
TTITLE4=O patrão e o camarada
TTITLE5=Salada de capim
TTITLE6=Briga de velho
TTITLE7=Dá licença
TTITLE8=Pensão da rua aurora
TTITLE9=O cacho de banana
TTITLE10=Cuidado com o paletó
TTITLE11=Papo furado
EXTD=
EXTT0=
EXTT1=
EXTT2=
EXTT3=
EXTT4=
EXTT5=
EXTT6=
EXTT7=
EXTT8=
EXTT9=
EXTT10=
EXTT11=
PLAYORDER=
